Coordinates
version=1
nRows=8
nColumns=63
inDegrees=yes

Units are S.I. units (second, meters, Newtons, ...)
If the header above contains a line with 'inDegrees', this indicates whether rotational values are in degrees (yes) or radians (no).

endheader
time	pelvis_tilt	pelvis_list	pelvis_rotation	pelvis_tx	pelvis_ty	pelvis_tz	hip_flexion_r	hip_adduction_r	hip_rotation_r	knee_angle_r	knee_angle_r_beta	ankle_angle_r	subtalar_angle_r	mtp_angle_r	hip_flexion_l	hip_adduction_l	hip_rotation_l	knee_angle_l	knee_angle_l_beta	ankle_angle_l	subtalar_angle_l	mtp_angle_l	L5_S1_Flex_Ext	L5_S1_Lat_Bending	L5_S1_axial_rotation	L4_L5_Flex_Ext	L4_L5_Lat_Bending	L4_L5_axial_rotation	L3_L4_Flex_Ext	L3_L4_Lat_Bending	L3_L4_axial_rotation	L2_L3_Flex_Ext	L2_L3_Lat_Bending	L2_L3_axial_rotation	L1_L2_Flex_Ext	L1_L2_Lat_Bending	L1_L2_axial_rotation	L1_T12_Flex_Ext	L1_T12_Lat_Bending	L1_T12_axial_rotation	Abs_r3	Abs_r2	Abs_r1	Abs_t1	Abs_t2	neck_flexion	neck_bending	neck_rotation	arm_flex_r	arm_add_r	arm_rot_r	elbow_flex_r	pro_sup_r	wrist_flex_r	wrist_dev_r	arm_flex_l	arm_add_l	arm_rot_l	elbow_flex_l	pro_sup_l	wrist_flex_l	wrist_dev_l
1.254237	-3.530098	0.252262	93.785183	0.170486	0.906615	0.606436	-0.605306	-5.112691	-6.127298	9.545611	0.166602	20.937904	9.857915	0.000000	1.923441	2.863939	-10.655768	11.826781	0.206416	25.050705	9.399564	0.000000	-0.093106	-0.490236	-0.069644	-0.172907	-0.652014	-0.073997	-0.152964	-1.191960	-0.073997	-0.106411	-1.191960	-0.060939	-0.086458	-0.999690	-0.056586	-0.053201	-0.759376	-0.052233	-0.665047	-5.545649	-0.387341	0.000000	0.000000	4.629707	4.652538	-0.090582	38.187113	-19.866857	0.298123	138.025220	89.082547	2.992309	17.497410	40.882405	-35.689487	-5.167019	141.185370	88.888100	6.811184	16.708632
1.271186	-3.446793	0.426806	93.754486	0.170529	0.907024	0.606684	-0.727815	-4.996279	-5.805926	9.508260	0.165950	20.853769	9.568837	0.000000	1.727719	2.775989	-10.528038	11.808416	0.206096	24.779014	9.127557	0.000000	-0.100633	-0.469322	-0.121595	-0.186886	-0.624198	-0.129194	-0.165330	-1.141109	-0.129194	-0.115014	-1.141109	-0.106395	-0.093448	-0.957041	-0.098796	-0.057502	-0.726979	-0.091196	-0.718813	-5.309062	-0.676272	0.000000	0.000000	4.152396	4.319230	0.537374	40.822681	-19.464175	0.490224	138.074861	88.644524	4.828867	18.044142	43.240563	-35.923566	-6.055551	142.186447	89.280325	7.216665	15.738913
1.288136	-3.346184	0.555909	93.732301	0.170480	0.907305	0.606875	-0.814969	-4.870297	-5.502622	9.482141	0.165495	20.779016	9.264650	0.000000	1.579640	2.671543	-10.425334	11.815534	0.206220	24.542996	8.876204	0.000000	-0.104383	-0.442010	-0.171227	-0.193849	-0.587873	-0.181929	-0.171491	-1.074702	-0.181929	-0.119299	-1.074702	-0.149824	-0.096930	-0.901346	-0.139122	-0.059644	-0.684673	-0.128421	-0.745596	-5.000101	-0.952315	0.000000	0.000000	3.828765	3.891258	1.231871	43.031303	-19.000196	0.262423	138.225352	88.282427	6.190174	17.975696	45.008547	-36.058618	-7.563307	143.128397	89.439022	6.999215	14.182863
1.305085	-3.232342	0.643202	93.746794	0.170323	0.907507	0.607051	-0.879740	-4.735945	-5.244772	9.455848	0.165036	20.702362	8.950370	0.000000	1.485302	2.555786	-10.307206	11.854615	0.206902	24.351379	8.630823	0.000000	-0.104874	-0.410447	-0.216436	-0.194761	-0.545894	-0.229963	-0.172297	-0.997961	-0.229963	-0.119860	-0.997961	-0.189381	-0.097386	-0.836983	-0.175854	-0.059925	-0.635782	-0.162327	-0.749101	-4.643057	-1.203752	0.000000	0.000000	3.624390	3.460457	1.962714	44.835418	-18.528037	-0.362953	138.508709	87.995615	7.026672	17.374316	46.324392	-36.102276	-9.462025	143.958354	89.318202	6.194639	12.138605
1.322034	-3.122954	0.691353	93.774828	0.170099	0.907670	0.607234	-0.913880	-4.610577	-5.006291	9.445001	0.164846	20.634695	8.617091	0.000000	1.436865	2.444222	-10.218778	11.912018	0.207904	24.213089	8.429060	0.000000	-0.101590	-0.378872	-0.249150	-0.188664	-0.503900	-0.264722	-0.166903	-0.921191	-0.264722	-0.116108	-0.921191	-0.218007	-0.094337	-0.772597	-0.202435	-0.058049	-0.586873	-0.186863	-0.725650	-4.285881	-1.385700	0.000000	0.000000	3.471561	3.010754	2.543959	46.272272	-18.089050	-1.312238	138.931705	87.818852	7.214266	16.419527	47.317252	-36.072621	-11.507494	144.626262	89.043641	4.744662	9.665567
1.338983	-3.021077	0.708788	93.839048	0.169798	0.907816	0.607440	-0.930986	-4.499608	-4.872248	9.443875	0.164827	20.581212	8.352457	0.000000	1.431697	2.332956	-10.189233	11.994695	0.209347	24.149147	8.352328	0.000000	-0.095621	-0.349424	-0.275369	-0.177577	-0.464734	-0.292580	-0.157095	-0.849590	-0.292580	-0.109285	-0.849590	-0.240948	-0.088793	-0.712546	-0.223737	-0.054638	-0.541258	-0.206527	-0.683009	-3.952756	-1.531521	0.000000	0.000000	3.353690	2.634183	2.976860	47.406996	-17.709521	-2.486842	139.450485	87.685645	6.809796	15.259046	48.079155	-35.966278	-13.540987	145.108333	88.719523	2.769218	6.849282
1.355932	-2.936186	0.702597	93.927657	0.169458	0.907939	0.607674	-0.933608	-4.414403	-4.871107	9.456367	0.165045	20.556795	8.207718	0.000000	1.462658	2.229218	-10.236440	12.101980	0.211219	24.159990	8.414924	0.000000	-0.088151	-0.324309	-0.298027	-0.163706	-0.431330	-0.316654	-0.144824	-0.788524	-0.316654	-0.100748	-0.788524	-0.260774	-0.081857	-0.661330	-0.242147	-0.050370	-0.502354	-0.223521	-0.629656	-3.668643	-1.657539	0.000000	0.000000	3.265216	2.327581	3.246252	48.305285	-17.378159	-3.785301	140.004684	87.588615	5.949569	14.077356	48.659484	-35.823395	-15.455646	145.428083	88.482196	0.402607	3.835488
1.372881	-2.874542	0.675773	94.036224	0.169095	0.908022	0.607927	-0.924639	-4.361767	-5.028533	9.480404	0.165464	20.563283	8.211882	0.000000	1.524725	2.140509	-10.346852	12.228175	0.213422	24.231434	8.599447	0.000000	-0.079647	-0.304541	-0.321785	-0.147912	-0.405039	-0.341897	-0.130852	-0.740461	-0.341897	-0.091028	-0.740461	-0.281562	-0.073960	-0.621020	-0.261450	-0.045510	-0.471734	-0.241339	-0.568909	-3.445028	-1.789672	0.000000	0.000000	3.219715	2.092546	3.389498	49.015530	-17.084956	-5.088932	140.522061	87.520675	4.769362	12.972119	49.090355	-35.697719	-17.164264	145.615781	88.328106	-2.148995	0.760180
